<svg xmlns="http://www.w3.org/2000/svg" width="400" height="300" viewBox="0 0 400 300"><rect width="100%" height="100%" fill="#2196F3"/><path fill="#FFFFFF" d="M101.695 107.235v35.45h3.68q2.23 0 3.69-.61 1.46-.62 2.51-1.96l23.35-29.55q1.46-1.87 3.07-2.6t4.06-.73h13.57l-28.48 35.16q-2.52 3.21-5.21 4.56 1.93.7 3.48 1.96t2.95 3.31l29.37 39.6h-13.86q-2.81 0-4.19-.79-1.37-.79-2.31-2.31l-23.92-31.24q-1.12-1.58-2.58-2.22-1.46-.65-4.21-.65h-4.97v37.21h-15.74v-84.59zm99.45 24.57h14.45v60.02h-8.84q-2.86 0-3.62-2.63l-1-4.8q-3.68 3.74-8.13 6.06-4.45 2.31-10.47 2.31-4.91 0-8.69-1.67-3.77-1.67-6.35-4.71-2.57-3.04-3.89-7.23-1.31-4.18-1.31-9.21v-38.14h14.45v38.14q0 5.5 2.54 8.51 2.55 3.02 7.64 3.02 3.74 0 7.02-1.67 3.27-1.67 6.2-4.59zm41.47 3.63.88 6.78q2.81-5.38 6.67-8.45t9.13-3.07q4.15 0 6.67 1.81l-.94 10.82q-.29 1.06-.85 1.5-.55.43-1.49.43-.88 0-2.6-.29-1.73-.29-3.37-.29-2.4 0-4.27.7t-3.36 2.02-2.63 3.19-2.14 4.27v36.97h-14.45v-60.02h8.48q2.23 0 3.1.79.88.79 1.17 2.84m70.79 2.86-3.28 5.21q-.58.93-1.23 1.32-.64.38-1.63.38-1.06 0-2.26-.59-1.19-.58-2.77-1.32-1.58-.73-3.6-1.31-2.02-.59-4.77-.59-4.27 0-6.7 1.82-2.43 1.81-2.43 4.73 0 1.94 1.26 3.25 1.26 1.32 3.34 2.31 2.07 1 4.71 1.79 2.63.79 5.35 1.72 2.72.94 5.35 2.14t4.71 3.04 3.34 4.42q1.25 2.57 1.25 6.2 0 4.33-1.55 7.98-1.55 3.66-4.59 6.32t-7.52 4.15q-4.47 1.5-10.32 1.5-3.1 0-6.06-.56-2.95-.56-5.67-1.55t-5.03-2.34-4.07-2.93l3.34-5.49q.64-1 1.52-1.53.87-.52 2.22-.52t2.55.76q1.19.76 2.77 1.64 1.58.87 3.72 1.63 2.13.77 5.41.77 2.57 0 4.42-.62 1.84-.61 3.04-1.61 1.2-.99 1.75-2.31.56-1.31.56-2.72 0-2.1-1.26-3.45t-3.33-2.34q-2.08-.99-4.74-1.78t-5.44-1.73-5.44-2.19q-2.66-1.26-4.74-3.19t-3.34-4.74q-1.25-2.81-1.25-6.79 0-3.68 1.46-7.02 1.46-3.33 4.3-5.82 2.84-2.48 7.08-3.98 4.24-1.49 9.8-1.49 6.2 0 11.29 2.05t8.48 5.38"/></svg>